<svg width="80" height="80" viewBox="0 0 80 80" fill="none" xmlns="http://www.w3.org/2000/svg">
                          <path d="M16.1233 69.1827V34.694L40.0001 10.8173L63.8769 34.694V69.1827H16.1233Z" fill="#224745" fill-opacity="0.1"/>
                          <path fill-rule="evenodd" clip-rule="evenodd" d="M37.979 8.79611C39.0952 7.67986 40.905 7.67986 42.0212 8.79611L76.5099 43.2848C77.6262 44.4011 77.6262 46.2108 76.5099 47.3271C75.3937 48.4433 73.5839 48.4433 72.4676 47.3271L40.0001 14.8596L7.53256 47.3271C6.41631 48.4433 4.60651 48.4433 3.49026 47.3271C2.37401 46.2108 2.37401 44.4011 3.49026 43.2848L37.979 8.79611Z" fill="#224745"/>
                          <path fill-rule="evenodd" clip-rule="evenodd" d="M16.1232 31.8357C17.7018 31.8357 18.9816 33.1154 18.9816 34.6941V66.3244H61.0185V34.6941C61.0185 33.1154 62.2982 31.8357 63.8768 31.8357C65.4554 31.8357 66.7351 33.1154 66.7351 34.6941V69.1827C66.7351 70.7614 65.4554 72.0411 63.8768 72.0411H16.1232C14.5446 72.0411 13.2649 70.7614 13.2649 69.1827V34.6941C13.2649 33.1154 14.5446 31.8357 16.1232 31.8357Z" fill="#224745"/>
                          </svg>