<svg width="80" height="80" viewBox="0 0 80 80" fill="none" xmlns="http://www.w3.org/2000/svg">
                          <path d="M69.1829 5.51132H10.8174C9.4102 5.51132 8.06061 6.07034 7.06555 7.0654C6.07049 8.06046 5.51147 9.41005 5.51147 10.8173V42.653C5.51147 43.3498 5.64872 44.0397 5.91537 44.6835C6.18202 45.3272 6.57285 45.9122 7.06555 46.4049C7.55826 46.8976 8.14318 47.2884 8.78693 47.555C9.43067 47.8217 10.1206 47.9589 10.8174 47.9589H69.1829C70.5901 47.9589 71.9397 47.3999 72.9348 46.4049C73.9298 45.4098 74.4889 44.0602 74.4889 42.653V10.8173C74.4889 9.41005 73.9298 8.06046 72.9348 7.0654C71.9397 6.07034 70.5901 5.51132 69.1829 5.51132Z" fill="#224745" fill-opacity="0.1"/>
                          <path fill-rule="evenodd" clip-rule="evenodd" d="M5.04434 5.04425C6.57544 3.51315 8.65206 2.65298 10.8174 2.65298H69.1828C71.3481 2.65298 73.4248 3.51315 74.9559 5.04425C76.487 6.57535 77.3471 8.65197 77.3471 10.8173V42.653C77.3471 44.8183 76.487 46.8949 74.9559 48.426C73.4248 49.9571 71.3481 50.8173 69.1828 50.8173H10.8174C9.74521 50.8173 8.68356 50.6061 7.69303 50.1958C6.70249 49.7855 5.80247 49.1841 5.04434 48.426C4.28622 47.6679 3.68484 46.7679 3.27455 45.7773C2.86425 44.7868 2.65308 43.7251 2.65308 42.653V10.8173C2.65308 8.65197 3.51324 6.57535 5.04434 5.04425ZM10.8174 8.36965C10.1682 8.36965 9.54565 8.62752 9.08663 9.08654C8.62762 9.54556 8.36974 10.1681 8.36974 10.8173V42.653C8.36974 42.9744 8.43305 43.2927 8.55606 43.5896C8.67906 43.8866 8.85935 44.1564 9.08663 44.3837C9.31391 44.611 9.58374 44.7913 9.8807 44.9143C10.1777 45.0373 10.4959 45.1006 10.8174 45.1006H69.1828C69.832 45.1006 70.4546 44.8427 70.9136 44.3837C71.3726 43.9247 71.6305 43.3021 71.6305 42.653V10.8173C71.6305 10.1681 71.3726 9.54556 70.9136 9.08654C70.4546 8.62752 69.832 8.36965 69.1828 8.36965H10.8174Z" fill="#224745"/>
                          <path fill-rule="evenodd" clip-rule="evenodd" d="M40.0002 61.0185C41.5788 61.0185 42.8585 62.2982 42.8585 63.8768V74.4887C42.8585 76.0673 41.5788 77.347 40.0002 77.347C38.4216 77.347 37.1418 76.0673 37.1418 74.4887V63.8768C37.1418 62.2982 38.4216 61.0185 40.0002 61.0185Z" fill="#224745"/>
                          <path fill-rule="evenodd" clip-rule="evenodd" d="M53.2651 55.7125C54.8437 55.7125 56.1234 56.9922 56.1234 58.5708V69.1827C56.1234 70.7614 54.8437 72.0411 53.2651 72.0411C51.6865 72.0411 50.4067 70.7614 50.4067 69.1827V58.5708C50.4067 56.9922 51.6865 55.7125 53.2651 55.7125Z" fill="#224745"/>
                          <path fill-rule="evenodd" clip-rule="evenodd" d="M26.7353 55.7125C28.3139 55.7125 29.5936 56.9922 29.5936 58.5708V69.1827C29.5936 70.7614 28.3139 72.0411 26.7353 72.0411C25.1567 72.0411 23.877 70.7614 23.877 69.1827V58.5708C23.877 56.9922 25.1567 55.7125 26.7353 55.7125Z" fill="#224745"/>
                          <path d="M40 36.0205C42.4627 36.0205 44.8244 35.0423 46.5658 33.3009C48.3071 31.5595 49.2854 29.1978 49.2854 26.7351C49.2854 24.2725 48.3071 21.9107 46.5658 20.1693C44.8244 18.428 42.4627 17.4497 40 17.4497C37.5374 17.4497 35.1756 18.428 33.4342 20.1693C31.6929 21.9107 30.7146 24.2725 30.7146 26.7351C30.7146 29.1978 31.6929 31.5595 33.4342 33.3009C35.1756 35.0423 37.5374 36.0205 40 36.0205Z" fill="white"/>
                          <path fill-rule="evenodd" clip-rule="evenodd" d="M31.4133 18.1482C33.6907 15.8708 36.7795 14.5914 40.0002 14.5914C43.2209 14.5914 46.3097 15.8708 48.5871 18.1482C50.8645 20.4256 52.1439 23.5144 52.1439 26.7351C52.1439 29.9558 50.8645 33.0447 48.5871 35.322C46.3097 37.5994 43.2209 38.8789 40.0002 38.8789C36.7795 38.8789 33.6907 37.5994 31.4133 35.322C29.1359 33.0447 27.8564 29.9558 27.8564 26.7351C27.8564 23.5144 29.1359 20.4256 31.4133 18.1482ZM40.0002 20.308C38.2956 20.308 36.6609 20.9852 35.4556 22.1905C34.2502 23.3958 33.5731 25.0306 33.5731 26.7351C33.5731 28.4397 34.2502 30.0744 35.4556 31.2798C36.6609 32.4851 38.2956 33.1622 40.0002 33.1622C41.7048 33.1622 43.3395 32.4851 44.5448 31.2798C45.7501 30.0744 46.4273 28.4397 46.4273 26.7351C46.4273 25.0306 45.7501 23.3958 44.5448 22.1905C43.3395 20.9852 41.7048 20.308 40.0002 20.308Z" fill="#224745"/>
                          <path fill-rule="evenodd" clip-rule="evenodd" d="M20.1151 26.7351C20.3231 26.3387 20.4409 25.8874 20.4409 25.4086C20.4409 23.83 19.1611 22.5503 17.5825 22.5503C16.4726 22.5503 15.4082 22.9912 14.6234 23.776C13.8386 24.5608 13.3977 25.6252 13.3977 26.7351C13.3977 27.845 13.8386 28.9094 14.6234 29.6942C15.4082 30.4791 16.4726 30.92 17.5825 30.92C19.1611 30.92 20.4409 29.6402 20.4409 28.0616C20.4409 27.5828 20.3231 27.1316 20.1151 26.7351Z" fill="#224745"/>
                          <path fill-rule="evenodd" clip-rule="evenodd" d="M14.7241 25.4086C14.7241 23.83 16.0038 22.5503 17.5825 22.5503C18.6923 22.5503 19.7568 22.9912 20.5416 23.776C21.3264 24.5608 21.7673 25.6252 21.7673 26.7351C21.7673 27.845 21.3264 28.9094 20.5416 29.6942C19.7568 30.4791 18.6923 30.92 17.5825 30.92C16.0038 30.92 14.7241 29.6402 14.7241 28.0616C14.7241 27.5828 14.8418 27.1316 15.0499 26.7351C14.8418 26.3387 14.7241 25.8874 14.7241 25.4086Z" fill="#224745"/>
                          <path fill-rule="evenodd" clip-rule="evenodd" d="M64.9503 26.7351C65.1583 26.3387 65.2761 25.8874 65.2761 25.4086C65.2761 23.83 63.9963 22.5503 62.4177 22.5503C61.3078 22.5503 60.2434 22.9912 59.4586 23.776C58.6738 24.5608 58.2329 25.6252 58.2329 26.7351C58.2329 27.845 58.6738 28.9094 59.4586 29.6942C60.2434 30.479 61.3078 30.92 62.4177 30.92C63.9963 30.92 65.2761 29.6402 65.2761 28.0616C65.2761 27.5828 65.1583 27.1316 64.9503 26.7351Z" fill="#224745"/>
                          <path fill-rule="evenodd" clip-rule="evenodd" d="M59.5593 25.4086C59.5593 23.83 60.839 22.5503 62.4177 22.5503C63.5275 22.5503 64.592 22.9912 65.3768 23.776C66.1616 24.5608 66.6025 25.6252 66.6025 26.7351C66.6025 27.845 66.1616 28.9094 65.3768 29.6942C64.592 30.4791 63.5275 30.92 62.4177 30.92C60.839 30.92 59.5593 29.6402 59.5593 28.0616C59.5593 27.5828 59.677 27.1316 59.8851 26.7351C59.677 26.3387 59.5593 25.8874 59.5593 25.4086Z" fill="#224745"/>
                          </svg>